<?xml version="1.0" encoding="utf-8"?>
<!-- Generator: Adobe Illustrator 24.3.0, SVG Export Plug-In . SVG Version: 6.00 Build 0)  -->
<svg version="1.1" id="Layer_1" xmlns="http://www.w3.org/2000/svg" xmlns:xlink="http://www.w3.org/1999/xlink" x="0px" y="0px"
	 viewBox="0 0 214 209" style="enable-background:new 0 0 214 209;" xml:space="preserve">
<style type="text/css">
	.st0{fill:#020202;}
	.st1{fill:#E10102;}
	.st2{fill:#050505;}
</style>
<desc>Created with Sketch.</desc>
<g>
	<path class="st0" d="M141,17.6c-0.9,0.8-1.7,1.6-2.6,2.3c-2.1,1.6-3.8,3.7-5.7,5.5c-3.2,3-6.5,5.9-9.5,9c-3.6,3.6-7.4,7.1-11,10.7
		c-1.3,1.3-2.6,2.6-4,3.8c-1,0.9-1.3,1.8-1.3,3.1c0,30.2,0,60.4,0.1,90.6c0,1.6-0.5,1.9-2,1.9c-12.1-0.1-24.3-0.1-36.4,0
		c-1.3,0-1.6-0.4-1.6-1.6c0-30.1,0-60.1,0.1-90.2c0-1.5-0.4-1.9-1.9-1.9C47.3,51,29.7,51,12.1,51c-1.3,0-1.6-0.2-1.6-1.6
		c0.1-10.3,0.1-20.6,0-30.9c0-1.1,0.2-1.4,1.4-1.4c42.8,0,85.5,0,128.3,0c0.2,0,0.3,0,0.5,0C140.7,17.3,140.8,17.5,141,17.6z"/>
	<path class="st1" d="M149.4,21.6c0,2.4,0,4.6,0,6.7c0,27.4,0,54.8,0,82.2c0,1.4,0.3,1.8,1.8,1.8c17.9-0.1,35.7,0,53.6-0.1
		c1.3,0,1.6,0.3,1.6,1.6c-0.1,9.8-0.1,19.6,0,29.3c0,1.2-0.3,1.5-1.5,1.5c-29.4,0-58.8,0-88.3,0c-1.1,0-1.5-0.2-1.5-1.4
		c0-29.4,0.1-58.9,0-88.3c0-2,1.5-2.8,2.6-3.7c2.2-1.8,3.9-4,6.1-5.7c2.9-2.3,5.2-5.2,8-7.4c1.4-1.1,2.6-2.5,3.9-3.8
		c3.2-3,6.3-5.9,9.5-8.9C146.6,24.2,147.7,22.8,149.4,21.6z"/>
</g>
<g>
	<path class="st1" d="M164.4,168.5c0-1.5,0-2.9,0-4.3c0-0.5,0.1-0.7,0.6-0.6c0.7,0,1.4,0,2.2,0c0.4,0,0.5,0.1,0.5,0.5
		c0,6.6,0,13.2,0,19.8c0,0.4-0.1,0.5-0.5,0.5c-0.6,0-1.2,0-1.8,0c-0.6,0-1.3,0.2-0.9-1c-2.5,1.6-5,1.9-7.6,1.2
		c-1.9-0.5-3.5-1.7-4.7-3.3c-2.4-3.2-2.2-7.7,0.2-10.8C154.7,167.6,159.4,165.6,164.4,168.5z M164.4,176
		C164.4,176,164.4,176,164.4,176c0-0.7,0-1.4,0-2.2c0-0.3-0.1-0.5-0.2-0.8c-1.3-2.2-3.9-3.1-6.4-2.4c-2.3,0.6-3.9,2.9-4,5.3
		c0,2.3,1.5,4.4,3.7,5.3c2.2,0.8,4.6,0.1,6.2-1.8c0.4-0.5,0.7-1.1,0.7-1.8C164.4,177.1,164.4,176.6,164.4,176z"/>
	<path class="st1" d="M145.4,168.5c0-1.5,0-2.9,0-4.3c0-0.4,0.1-0.6,0.6-0.6c0.7,0,1.4,0,2.1,0c0.5,0,0.7,0.1,0.7,0.7
		c0,6.2,0,12.4,0,18.6c0,0.3,0,0.7,0,1c0,0.4-0.1,0.5-0.5,0.5c-0.6,0-1.3,0-1.9,0c-0.6,0-1.1,0-0.9-1c-2.5,1.6-5,1.9-7.7,1.1
		c-2-0.6-3.5-1.8-4.7-3.4c-2.3-3.3-2.1-7.7,0.4-10.8C135.9,167.4,140.6,165.7,145.4,168.5z M145.4,176c0-0.7,0-1.4,0-2.1
		c0-0.3-0.1-0.6-0.2-0.8c-1.3-2.2-3.9-3.1-6.4-2.4c-2.2,0.6-3.9,2.9-3.9,5.3c0,2.2,1.3,4.3,3.4,5.2c2.2,0.9,4.5,0.4,6.1-1.2
		c0.7-0.7,1.2-1.5,1.1-2.6C145.3,176.9,145.4,176.4,145.4,176z"/>
	<path class="st1" d="M126.3,168.6c-0.3-1,0.3-1,0.9-1c0.6,0,1.2,0,1.8,0c0.4,0,0.5,0.1,0.5,0.5c0,1.4,0,2.7,0,4.1
		c0,3.8,0,7.6,0,11.5c0,0.6-0.2,0.7-0.7,0.7c-0.6,0-1.2,0-1.8,0c-0.6,0-1.1,0-0.8-1c-2.7,1.7-5.4,2-8.3,0.9
		c-1.8-0.6-3.2-1.8-4.2-3.4c-2.2-3.2-1.9-7.6,0.5-10.6c1.5-1.8,3.3-2.9,5.6-3.2C122.2,166.9,124.3,167.3,126.3,168.6z M126.3,176
		c0-0.7,0-1.4,0-2.1c0-0.2,0-0.5-0.1-0.7c-1.4-2.7-5.2-3.6-7.7-2c-2,1.3-3,3.1-2.6,5.5c0.3,2.3,1.7,3.9,3.9,4.6c2.3,0.7,4.4,0,6-1.8
		c0.4-0.5,0.7-1.1,0.7-1.8C126.2,177.1,126.3,176.6,126.3,176z"/>
	<path class="st1" d="M178.5,167.1c2.8,0,5.1,1.1,7,3.3c0.4,0.4,0.4,0.7,0,1.1c-2.8,2.8-5.6,5.5-8.3,8.3c-0.2,0.2-0.4,0.4-0.5,0.5
		c-0.7,0.6-0.7,0.7,0.3,1c2.1,0.6,4,0.2,5.6-1.4c0.6-0.6,0.6-0.6,1.2,0c0.4,0.4,0.9,0.9,1.4,1.3c0.3,0.3,0.3,0.4,0,0.8
		c-2.6,2.7-6.3,3.6-9.8,2.3c-3.3-1.3-5.6-4.5-5.6-8.2C169.5,171.1,173.5,167.1,178.5,167.1z M172.9,176c0,0.7,0.1,1.4,0.4,2
		c0.2,0.4,0.3,0.6,0.7,0.2c2.2-2.3,4.5-4.5,6.7-6.7c0.4-0.4,0.3-0.5-0.1-0.7C177,169.3,172.9,172.1,172.9,176z"/>
	<path class="st1" d="M202.2,184.9c-2.3,0-4.3-0.7-6.1-1.9c-0.3-0.2-0.3-0.3-0.1-0.6c0.5-0.6,1.1-1.2,1.6-1.8
		c0.3-0.4,0.5-0.3,0.8-0.1c1.6,0.9,3.2,1.3,5,1c0.5-0.1,1-0.3,1.5-0.6c0.5-0.3,0.8-0.8,0.7-1.4c-0.1-0.6-0.4-1.1-1-1.3
		c-1.2-0.3-2.5-0.6-3.7-0.9c-1.9-0.5-3.5-1.4-4.2-3.4c-0.9-2.7,0.6-5.7,3.5-6.4c3.2-0.8,6.1-0.1,8.6,2.1c0.2,0.2,0.2,0.3,0,0.5
		c-0.6,0.5-1.2,1-1.8,1.6c-0.3,0.3-0.5,0.3-0.9,0c-1.4-1-2.9-1.4-4.6-1.1c-0.3,0-0.5,0.1-0.8,0.3c-0.6,0.3-1.1,0.8-1,1.5
		c0,0.7,0.5,1.2,1.1,1.4c1.1,0.4,2.4,0.7,3.5,1c1.7,0.4,3.2,1.2,4,2.9c1.2,2.7-0.1,5.6-3,6.7c-0.5,0.2-1,0.3-1.5,0.4
		C203.4,184.9,202.8,184.9,202.2,184.9z"/>
	<path class="st2" d="M25.5,184.1c-3.7,0-7.1-3-7.6-7.1c-0.5-4.1,2.1-7.9,6.1-8.9c3.1-0.7,5.8,0,8,2.4c0.3,0.3,0.3,0.5,0,0.8
		c-3.1,3.1-6.2,6.2-9.3,9.3c-0.4,0.4-0.3,0.6,0.1,0.8c2.3,1.4,5.3,1.1,7.4-0.7c0.3-0.3,0.5-0.3,0.8,0c0.9,1,0.9,0.9-0.1,1.7
		C29.4,183.6,27.8,184.1,25.5,184.1z M19.7,176c0,1.2,0.3,2.4,1,3.4c0.2,0.4,0.4,0.4,0.7,0.1c2.7-2.7,5.4-5.4,8.1-8
		c0.5-0.5,0.3-0.6-0.1-0.9c-2.1-1.1-4.2-1.2-6.2-0.1C20.9,171.6,19.7,173.5,19.7,176z"/>
	<path class="st2" d="M96.6,167.9c4.5,0,8.2,3.7,8.1,8.2c-0.1,4.4-3.6,8-7.9,8.1c-4.6,0.1-8.4-3.8-8.3-8.2
		C88.5,171.4,92,167.9,96.6,167.9z M90.2,176c0,3.6,2.8,6.3,6.4,6.3c3.4,0,6.2-2.8,6.3-6.3c0-3.4-2.8-6.4-6.2-6.4
		C93,169.7,90.2,172.4,90.2,176z"/>
	<path class="st2" d="M54.4,169.9c1.2-1.1,2.5-1.7,4-2c4.5-0.8,8.7,2.8,8.7,7.3c0,2.5,0,5.1,0,7.6c0,0.5-0.1,0.7-0.6,0.6
		c-1.2,0-1.2,0-1.2-1.2c0-2.3,0-4.6,0-6.8c-0.1-4.3-4.3-7-8.1-5.3c-1.1,0.5-2,1.3-2.6,2.4c-0.2,0.3-0.2,0.5-0.2,0.8
		c0,3.2,0,6.4,0,9.6c0,0.5-0.1,0.6-0.6,0.6c-1.2,0-1.2,0-1.2-1.2c0-5.7,0-11.5,0-17.2c0-0.5,0.1-0.7,0.6-0.7c1.2,0,1.2,0,1.2,1.2
		C54.4,167,54.4,168.4,54.4,169.9z"/>
	<path class="st1" d="M190.8,168.3c1.6-0.9,3.1-1.3,4.7-1.2c0.4,0,0.5,0.1,0.5,0.5c0,0.8,0,1.5,0,2.3c0,0.5-0.1,0.6-0.6,0.6
		c-1.8,0-3.2,0.7-4.3,2.1c-0.3,0.3-0.4,0.7-0.4,1.1c0,3.3,0,6.7,0,10c0,0.5-0.2,0.7-0.7,0.7c-0.7,0-1.4,0-2.2,0
		c-0.3,0-0.5,0-0.5-0.4c0-5.3,0-10.5,0-15.8c0-0.3,0.1-0.4,0.4-0.4c0.8,0,1.5,0,2.3,0C190.7,167.6,191,167.7,190.8,168.3z"/>
	<path class="st2" d="M72.8,169.9c1.2-1.1,2.5-1.7,4-1.9c4.4-0.8,8.7,2.8,8.7,7.3c0,2.6,0,5.1,0,7.7c0,0.4,0,0.6-0.6,0.6
		c-1.2,0-1.2,0-1.2-1.2c0-2.3,0-4.6,0-6.8c0-2.3-1.1-4.1-3.2-5.1c-2-1-4-0.8-5.9,0.5c-0.5,0.4-0.9,0.8-1.3,1.3
		c-0.3,0.4-0.5,0.9-0.5,1.5c0,3.1,0,6.2,0,9.3c0,0.5-0.1,0.6-0.6,0.6c-1.2,0-1.2,0-1.2-1.2c0-4.4,0-8.8,0-13.2
		c0-0.5,0.1-0.7,0.7-0.7C72.8,168.5,72.8,168.4,72.8,169.9z"/>
	<path class="st1" d="M110.5,174c0,3.2,0,6.5,0,9.7c0,0.5-0.1,0.7-0.6,0.6c-0.7,0-1.5,0-2.2,0c-0.4,0-0.5-0.1-0.5-0.5
		c0-0.5,0-1.1,0-1.6c0-6,0-11.9,0-17.9c0-0.5,0.1-0.7,0.7-0.7c0.6,0,1.3,0.1,1.9,0c0.6,0,0.8,0.1,0.8,0.7
		C110.5,167.6,110.5,170.8,110.5,174z"/>
	<path class="st2" d="M42.5,184.1c-3.9,0-7.3-3-7.8-7.2c-0.5-4,2.1-7.9,6.1-8.9c3.1-0.7,5.7,0.1,7.9,2.4c0.3,0.3,0.3,0.5-0.1,0.8
		c-0.3,0.2-0.6,0.6-0.9,0.7c-0.4,0.1-0.5-0.4-0.8-0.7c-2.1-1.9-5.5-2.1-7.8-0.5c-2.5,1.8-3.5,4.9-2.4,7.6c1.1,2.7,3.9,4.3,6.9,3.9
		c1.5-0.2,2.7-0.9,3.7-1.9c0.3-0.3,0.4-0.3,0.7,0c1.1,0.9,1.1,0.9,0.1,1.8C46.6,183.4,44.9,184.2,42.5,184.1z"/>
	<path class="st2" d="M11.3,174.9c0,2.7,0,5.3,0,8c0,0.5-0.1,0.7-0.6,0.6c-1.2,0-1.2,0-1.2-1.1c0-5.2,0-10.4,0-15.5
		c0-0.5-0.2-0.6-0.6-0.6c-1.5,0-2.9,0-4.4,0c-0.4,0-0.5-0.1-0.5-0.5c0-1.3,0-1.3,1.3-1.3c3.6,0,7.2,0,10.8,0c0.5,0,0.7,0.1,0.7,0.6
		c0,1.2,0,1.2-1.1,1.2c-1.3,0-2.5,0-3.8,0c-0.4,0-0.6,0.1-0.6,0.6C11.3,169.5,11.3,172.2,11.3,174.9z"/>
	<path class="st1" d="M30.1,193.5c8.3,0,16.6,0,24.9,0c0.1,0,0.3,0,0.4,0c0.1,0,0.2,0,0.2,0.2c0,0.1,0,0.3-0.2,0.3
		c-0.1,0-0.3,0-0.4,0c-16.6,0-33.2,0-49.9,0c-0.1,0-0.3,0-0.4,0c-0.2,0-0.2-0.1-0.2-0.3c0-0.1,0.1-0.2,0.2-0.2c0.1,0,0.3,0,0.4,0
		C13.5,193.5,21.8,193.5,30.1,193.5z"/>
	<path class="st2" d="M183,193.8c8.3,0,16.6,0,24.8,0c0.1,0,0.3,0,0.4,0c0.2,0,0.2,0.1,0.2,0.2c0,0.2-0.1,0.2-0.2,0.2
		c-0.1,0-0.3,0-0.4,0c-16.6,0-33.2,0-49.8,0c0,0-0.1,0-0.1,0c-0.2-0.1-0.5,0.2-0.5-0.2c0-0.4,0.4-0.2,0.5-0.2
		C166.3,193.8,174.6,193.8,183,193.8z"/>
	<path class="st2" d="M141.6,193.8c0-0.7,0-1.3,0-2c0-0.6,0.4-0.4,0.7-0.4c0.3,0,0.6-0.1,0.5,0.4c0,1.2,0,2.4,0,3.7
		c0,0.2,0.1,0.6-0.1,0.6c-0.3,0.1-0.7,0.2-1-0.2c-0.5-0.7-1-1.3-1.5-1.9c-0.1-0.1-0.2-0.3-0.3-0.3c-0.2,0.1-0.1,0.3-0.1,0.4
		c0,0.5,0,1.1,0,1.6c0,0.6-0.3,0.4-0.6,0.4c-0.3,0-0.6,0.1-0.6-0.4c0-1.2,0-2.5,0-3.7c0-0.2-0.2-0.6,0.2-0.6c0.3,0,0.7-0.2,1,0.2
		c0.6,0.8,1.2,1.5,1.8,2.2C141.5,193.8,141.5,193.8,141.6,193.8z"/>
	<path class="st2" d="M71.9,196.3c-1.5,0-2.6-1.1-2.6-2.5c0-1.4,1.2-2.5,2.6-2.5c1.5,0,2.6,1.1,2.6,2.5
		C74.5,195.2,73.4,196.3,71.9,196.3z M73.2,193.8c0-0.9-0.5-1.4-1.3-1.4c-0.8,0-1.4,0.6-1.4,1.4c0,0.9,0.5,1.5,1.4,1.5
		C72.7,195.2,73.2,194.7,73.2,193.8z"/>
	<path class="st2" d="M128.1,191.3c1.4,0,2.6,1.1,2.6,2.5c0,1.4-1.2,2.5-2.6,2.5c-1.4,0-2.6-1.1-2.6-2.5
		C125.4,192.4,126.6,191.3,128.1,191.3z M129.4,193.7c0-0.9-0.5-1.4-1.3-1.4c-0.8,0-1.3,0.6-1.3,1.4c0,0.9,0.5,1.4,1.3,1.4
		C128.9,195.2,129.4,194.7,129.4,193.7z"/>
	<path class="st2" d="M97.5,193.1c0,0.5,0,1.1-0.1,1.7c-0.3,1-1.1,1.5-2.2,1.5c-1.1,0-1.9-0.7-2-1.7c-0.1-0.9-0.1-1.9-0.1-2.8
		c0-0.6,0.5-0.2,0.8-0.3c0.2-0.1,0.5-0.1,0.5,0.3c0,0.8,0,1.6,0,2.4c0,0.7,0.3,1,0.9,1.1c0.7,0,1-0.2,1-1c0-0.8,0.1-1.6,0-2.4
		c0-0.5,0.3-0.4,0.6-0.4c0.3,0,0.7-0.2,0.7,0.4C97.5,192.2,97.5,192.6,97.5,193.1z"/>
	<path class="st2" d="M60,192.2c-0.4,0-0.7,0.1-0.8,0.5c0,0.4,0.3,0.4,0.6,0.5c0.4,0.1,0.9,0.2,1.3,0.4c1,0.4,1.1,1.5,0.3,2.2
		c-0.9,0.7-2.5,0.5-3.3,0.1c-0.4-0.2,0-0.5,0.1-0.7c0-0.2,0.2-0.3,0.4-0.2c0.5,0.3,1.1,0.4,1.7,0.3c0.2,0,0.4-0.1,0.5-0.4
		c0-0.3-0.2-0.4-0.4-0.5c-0.5-0.1-0.9-0.3-1.4-0.4c-0.6-0.2-0.9-0.6-0.9-1.2c0-0.6,0.3-1,0.8-1.3c0.9-0.4,1.8-0.3,2.7,0
		c0.4,0.1,0.1,0.4,0,0.6c-0.1,0.2-0.1,0.5-0.5,0.3C60.7,192.3,60.4,192.2,60,192.2z"/>
	<path class="st2" d="M152.2,196.3c-0.4-0.1-0.8-0.2-1.2-0.3c-0.5-0.1-0.6-0.4-0.4-0.8c0.1-0.3,0.2-0.3,0.5-0.2
		c0.4,0.2,0.9,0.4,1.4,0.3c0.3,0,0.6-0.1,0.6-0.4c0-0.3-0.3-0.5-0.5-0.5c-0.4-0.1-0.9-0.2-1.3-0.4c-0.6-0.2-0.9-0.6-0.9-1.2
		c0-0.6,0.3-1,0.9-1.3c0.8-0.4,1.7-0.3,2.5,0c0.3,0.1,0.3,0.3,0.1,0.5c-0.1,0.2-0.1,0.6-0.5,0.4c-0.4-0.2-0.8-0.3-1.2-0.2
		c-0.3,0-0.6,0.1-0.6,0.5c0,0.3,0.2,0.4,0.5,0.5c0.4,0.1,0.8,0.2,1.2,0.3c0.6,0.2,1,0.6,1,1.2c0,0.6-0.4,1.1-0.9,1.3
		C153.1,196.2,152.7,196.2,152.2,196.3z"/>
	<path class="st2" d="M106.9,191.4c0.6,0,1.1,0,1.6,0c0.4,0,0.4,0.2,0.4,0.5c0,0.3,0,0.5-0.4,0.5c-1,0-1,0-1,1.1c0,0.8,0,1.5,0,2.3
		c0,0.5-0.3,0.4-0.6,0.4c-0.3,0-0.7,0.2-0.7-0.4c0-0.8,0-1.6,0-2.4c0-1.1,0.1-1-0.9-0.9c-0.4,0-0.5-0.1-0.5-0.5
		c0-0.3,0.1-0.5,0.5-0.5C105.8,191.4,106.4,191.4,106.9,191.4z"/>
	<path class="st2" d="M82.1,193.7c0-0.6,0-1.2,0-1.8c0-0.5,0.2-0.5,0.6-0.5c0.3,0,0.7-0.1,0.7,0.5c0,0.9,0,1.8,0,2.7
		c0,0.5,0.2,0.7,0.7,0.7c0.4,0,0.7,0,1.1,0c0.4,0,0.5,0.1,0.5,0.5c0,0.4-0.2,0.5-0.5,0.5c-0.9,0-1.7,0-2.6,0c-0.4,0-0.5-0.1-0.5-0.5
		C82.1,195,82.1,194.4,82.1,193.7z"/>
	<path class="st2" d="M117.8,193.8c0,0.6,0,1.3,0,1.9c0,0.7-0.5,0.4-0.7,0.4c-0.3,0-0.6,0.1-0.5-0.4c0-1.3,0-2.6,0-3.9
		c0-0.6,0.4-0.4,0.6-0.4c0.3,0,0.7-0.2,0.6,0.4C117.8,192.5,117.8,193.1,117.8,193.8C117.8,193.8,117.8,193.8,117.8,193.8z"/>
</g>
</svg>
